# xmcd
#
# Track frame offsets: 
#        150
#        11195
#        23787
#        36937
#        48662
#        59730
#        71137
#        80972
#        90432
#        102965
#        113730
#        125450
#        140230
#        151592
#        162810
#        173862
#        187577
#        197092
#        209512
#        222570
#        234307
#        246107
#        256722
#        268417
#
# Disc length: 3713 seconds
#
# Revision: 1
# Processed by: cddbd v1.4PL0 Copyright (c) Steve Scherf et al.
# Submitted via: ExactAudioCopy v0.90b3
#
DISCID=600e7f18
DTITLE=George Jones - 24 Greatest Hits
DYEAR=1900
DGENRE=Country
TTITLE0=Tender Years
TTITLE1=She Thinks I Still Care
TTITLE2=When The Grass Grows Over Me
TTITLE3=We Must Have Been Out Of Our Minds (With Melba Montgomery)
TTITLE4=Four-O-Thirty-Three
TTITLE5=You Comb Her Hair
TTITLE6=I'm A People
TTITLE7=Love Bug
TTITLE8=Sweeter Than The Flowers
TTITLE9=Tell Me My Lying Eyes Are Wrong
TTITLE10=Accidentally On Purpose
TTITLE11=Where Grass Won't Grow
TTITLE12=I'll Share My World With You
TTITLE13=As Long As I Live
TTITLE14=I Can't Get There From Here
TTITLE15=If Not For You
TTITLE16=Right Won't Touch A Hand
TTITLE17=If My Heart Had Windows
TTITLE18=Things Have Gone To Pieces
TTITLE19=Milwaukee, Here I Come (With Brenda Carter)
TTITLE20=I'll Follow You (Up To Our Cloud)
TTITLE21=Sometimes You Just Can't Win
TTITLE22=Small Time Laboring Man
TTITLE23=Close Together (As You And Me) (With Melba Montgomery)
EXTD=
EXTT0=
EXTT1=
EXTT2=
EXTT3=With Melba Montgomery
EXTT4=
EXTT5=
EXTT6=
EXTT7=
EXTT8=
EXTT9=
EXTT10=
EXTT11=
EXTT12=
EXTT13=
EXTT14=
EXTT15=
EXTT16=
EXTT17=
EXTT18=
EXTT19=With Brenda Carter
EXTT20=
EXTT21=
EXTT22=
EXTT23=Melba Montgomery
PLAYORDER=
